<svg xmlns="http://www.w3.org/2000/svg" width="14" height="14" viewBox="0 0 14 14"><defs><style>.a{fill:none;}.b{fill:rgba(101,91,157,0.41);}</style></defs><path class="a" d="M0,0H14V14H0Z"/><path class="b" d="M12.333,2.167H11.75V1H10.583V2.167H5.917V1H4.75V2.167H4.167A1.161,1.161,0,0,0,3.006,3.333L3,11.5a1.166,1.166,0,0,0,1.167,1.167h8.167A1.17,1.17,0,0,0,13.5,11.5V3.333A1.17,1.17,0,0,0,12.333,2.167Zm0,9.333H4.167V5.083h8.167Zm-7-5.25H8.25V9.167H5.333Z" transform="translate(-1.25 -0.417)"/></svg>