<?xml version="1.0" encoding="utf-8"?>
<!-- Generator: Adobe Illustrator 24.0.2, SVG Export Plug-In . SVG Version: 6.00 Build 0)  -->
<svg version="1.1" id="Camada_1" xmlns="http://www.w3.org/2000/svg" xmlns:xlink="http://www.w3.org/1999/xlink" x="0px" y="0px"
	 viewBox="0 0 40 40" style="enable-background:new 0 0 40 40;" xml:space="preserve">
<g transform="translate(-1 -1)">
	<path d="M39.1,1H2.9C1.9,1,1,1.9,1,2.9v25.8c0,1.1,0.9,1.9,1.9,1.9h17.4c0.1,5.7,4.7,10.3,10.4,10.2c5.6-0.1,10.2-4.6,10.2-10.2
		V2.9C41,1.9,40.1,1,39.1,1z M2.9,2.3h36.1c0.4,0,0.6,0.3,0.6,0.6v3.2H2.3V2.9C2.3,2.6,2.6,2.3,2.9,2.3z M30,30.4l-6.2,6.2
		c-3.3-3.8-2.9-9.4,0.9-12.7c1.5-1.3,3.3-2.1,5.3-2.2V30.4z M24.8,37.5l5.9-5.9l5.9,5.9C33.2,40.5,28.2,40.5,24.8,37.5L24.8,37.5z
		 M37.5,36.6l-6.2-6.2v-8.7c5,0.3,8.7,4.6,8.4,9.6C39.6,33.2,38.8,35.1,37.5,36.6z M30.7,20.4c-5.2,0-9.6,3.9-10.2,9H2.9
		c-0.4,0-0.6-0.3-0.6-0.6V7.5h37.4v18.2C37.9,22.4,34.4,20.4,30.7,20.4z"/>
	<path d="M24.2,30.7c0-2.9,1.9-5.4,4.7-6.2l-0.4-1.2c-3.3,1-5.6,4-5.6,7.5H24.2z"/>
	<path d="M23.1,32.1c0.1,0.5,0.2,1,0.4,1.4l1.2-0.5c-0.1-0.4-0.3-0.8-0.3-1.2L23.1,32.1z"/>
	<path d="M36.9,28.8l1.2-0.4c-0.1-0.5-0.3-0.9-0.5-1.3l-1.1,0.6C36.6,28.1,36.7,28.5,36.9,28.8z"/>
	<path d="M37.1,30.7c0,0.2,0,0.3,0,0.5l1.3,0.1c0-0.2,0-0.4,0-0.6c0-0.3,0-0.6,0-0.8L37.1,30C37.1,30.2,37.1,30.4,37.1,30.7
		L37.1,30.7z"/>
	<path d="M36.5,33.4l1.2,0.5c0.2-0.4,0.4-0.9,0.5-1.3l-1.2-0.3C36.8,32.7,36.7,33.1,36.5,33.4z"/>
	<path d="M6.2,3.6h1.3v1.3H6.2V3.6z"/>
	<path d="M3.6,3.6h1.3v1.3H3.6V3.6z"/>
	<path d="M8.7,3.6H10v1.3H8.7V3.6z"/>
	<path d="M14.5,8.7h-9c-1.1,0-1.9,0.9-1.9,1.9v5.2c0,1.1,0.9,1.9,1.9,1.9h9c1.1,0,1.9-0.9,1.9-1.9v-5.2C16.5,9.6,15.6,8.7,14.5,8.7z
		 M15.2,15.8c0,0.4-0.3,0.6-0.6,0.6h-9c-0.4,0-0.6-0.3-0.6-0.6v-5.2c0-0.4,0.3-0.6,0.6-0.6h9c0.4,0,0.6,0.3,0.6,0.6L15.2,15.8z"/>
	<path d="M14.5,19.1h-9c-1.1,0-1.9,0.9-1.9,1.9v5.2c0,1.1,0.9,1.9,1.9,1.9h9c1.1,0,1.9-0.9,1.9-1.9V21
		C16.5,19.9,15.6,19.1,14.5,19.1z M15.2,26.2c0,0.4-0.3,0.6-0.6,0.6h-9c-0.4,0-0.6-0.3-0.6-0.6V21c0-0.4,0.3-0.6,0.6-0.6h9
		c0.4,0,0.6,0.3,0.6,0.6L15.2,26.2z"/>
	<path d="M10.7,13.6l-1.9-1.9l-3,3l0.9,0.9l2.1-2.1l1.9,1.9l3.7-3.7l-0.9-0.9L10.7,13.6z"/>
	<path d="M12.6,21.6h-1.3v2.6H10v-1.3H8.7v1.3H7.5v-2.6H6.2v3.9h7.7v-1.3h-1.3L12.6,21.6z"/>
	<path d="M19.1,8.7h1.3V10h-1.3V8.7z"/>
	<path d="M21.6,8.7h16.8V10H21.6V8.7z"/>
	<path d="M19.1,11.3h19.4v1.3H19.1V11.3z"/>
	<path d="M19.1,13.9h3.9v1.3h-3.9V13.9z"/>
	<path d="M24.2,13.9h14.2v1.3H24.2V13.9z"/>
	<path d="M19.1,16.5h11.6v1.3H19.1V16.5z"/>
	<path d="M32,16.5h1.3v1.3H32V16.5z"/>
	<path d="M34.5,16.5h1.3v1.3h-1.3V16.5z"/>
	<path d="M37.1,16.5h1.3v1.3h-1.3V16.5z"/>
</g>
</svg>
