<svg xmlns="http://www.w3.org/2000/svg" width="13.2" height="16.5" viewBox="0 0 13.2 16.5"><g transform="translate(0)"><path class="a" d="M65.375,32.5h10.45A1.377,1.377,0,0,0,77.2,31.125V19.575a.275.275,0,0,0-.081-.194l-3.3-3.3A.275.275,0,0,0,73.625,16h-8.25A1.377,1.377,0,0,0,64,17.375v13.75A1.377,1.377,0,0,0,65.375,32.5ZM73.9,16.939,76.261,19.3H74.725a.826.826,0,0,1-.825-.825Zm-9.35.436a.826.826,0,0,1,.825-.825H73.35v1.925a1.377,1.377,0,0,0,1.375,1.375H76.65V31.125a.826.826,0,0,1-.825.825H65.375a.826.826,0,0,1-.825-.825Z" transform="translate(-64 -16)"/><path class="a" d="M192,160.275a.275.275,0,0,0,.275.275h6.6a.275.275,0,1,0,0-.55h-6.6A.275.275,0,0,0,192,160.275Z" transform="translate(-187.6 -155.05)"/><path class="a" d="M112.275,208.55h5.5a.275.275,0,1,0,0-.55h-5.5a.275.275,0,1,0,0,.55Z" transform="translate(-110.35 -201.4)"/><path class="a" d="M245.225,256h-4.95a.275.275,0,1,0,0,.55h4.95a.275.275,0,1,0,0-.55Z" transform="translate(-233.95 -247.75)"/><path class="a" d="M112.275,304.55h6.6a.275.275,0,0,0,0-.55h-6.6a.275.275,0,1,0,0,.55Z" transform="translate(-110.35 -294.1)"/><path class="a" d="M112.275,160.55h1.65a.275.275,0,0,0,0-.55h-1.65a.275.275,0,1,0,0,.55Z" transform="translate(-110.35 -155.05)"/><path class="a" d="M307.025,208h-2.75a.275.275,0,1,0,0,.55h2.75a.275.275,0,0,0,0-.55Z" transform="translate(-295.75 -201.4)"/><path class="a" d="M112.275,256.55h3.3a.275.275,0,1,0,0-.55h-3.3a.275.275,0,1,0,0,.55Z" transform="translate(-110.35 -247.75)"/><path class="a" d="M337.925,304h-1.65a.275.275,0,1,0,0,.55h1.65a.275.275,0,0,0,0-.55Z" transform="translate(-326.65 -294.1)"/><path class="a" d="M243.025,400h-2.75a.275.275,0,1,0,0,.55h2.75a.275.275,0,1,0,0-.55Z" transform="translate(-233.95 -386.8)"/><path class="a" d="M112.275,400.55h3.3a.275.275,0,1,0,0-.55h-3.3a.275.275,0,1,0,0,.55Z" transform="translate(-110.35 -386.8)"/><path class="a" d="M112.275,352.55h2.2a.275.275,0,1,0,0-.55h-2.2a.275.275,0,1,0,0,.55Z" transform="translate(-110.35 -340.45)"/><path class="a" d="M112.275,112.55h3.3a.275.275,0,1,0,0-.55h-3.3a.275.275,0,1,0,0,.55Z" transform="translate(-110.35 -108.7)"/><path class="a" d="M211.3,352.275a.275.275,0,0,0-.275-.275h-2.75a.275.275,0,0,0,0,.55h2.75A.275.275,0,0,0,211.3,352.275Z" transform="translate(-203.05 -340.45)"/><path class="a" d="M322.475,352h-2.2a.275.275,0,1,0,0,.55h2.2a.275.275,0,1,0,0-.55Z" transform="translate(-311.2 -340.45)"/><path class="a" d="M353.375,400h-1.1a.275.275,0,1,0,0,.55h1.1a.275.275,0,1,0,0-.55Z" transform="translate(-342.1 -386.8)"/></g></svg>