<svg xmlns="http://www.w3.org/2000/svg" width="11.884" height="15" viewBox="0 0 11.884 15"><g transform="translate(-0.5)"><path class="a" d="M8.583.116A.363.363,0,0,0,8.322,0H2.471A1.979,1.979,0,0,0,.5,1.967V13.033A1.979,1.979,0,0,0,2.471,15h7.942a1.979,1.979,0,0,0,1.971-1.967V4.246a.39.39,0,0,0-.105-.254Zm.105,1.163,2.475,2.6H9.554a.863.863,0,0,1-.866-.862Zm1.725,13H2.471a1.255,1.255,0,0,1-1.246-1.243V1.967A1.255,1.255,0,0,1,2.471.725H7.964v2.29A1.585,1.585,0,0,0,9.554,4.6h2.105v8.431A1.253,1.253,0,0,1,10.413,14.275Zm0,0"/><path class="a" d="M95.5,401.934H89.534a.362.362,0,0,0,0,.725H95.5a.362.362,0,1,0,0-.725Zm0,0" transform="translate(-86.074 -390.158)"/><path class="a" d="M120.844,175.782a.36.36,0,0,0,.529,0L123.5,173.5a.361.361,0,1,0-.529-.493l-1.5,1.605v-3.956a.362.362,0,0,0-.725,0v3.956l-1.493-1.605a.361.361,0,1,0-.529.493Zm0,0" transform="translate(-114.667 -165.308)"/></g></svg>