<?xml version="1.0" encoding="utf-8"?>
<!-- Generator: Adobe Illustrator 23.0.1, SVG Export Plug-In . SVG Version: 6.00 Build 0)  -->
<svg version="1.1" id="Capa_1" xmlns="http://www.w3.org/2000/svg" xmlns:xlink="http://www.w3.org/1999/xlink" x="0px" y="0px"
	 viewBox="0 0 486.4 486.4" style="enable-background:new 0 0 486.4 486.4;" xml:space="preserve">
<path d="M446,70H344.8V53.5c0-29.5-24-53.5-53.5-53.5h-96.2c-29.5,0-53.5,24-53.5,53.5V70H40.4c-7.5,0-13.5,6-13.5,13.5
	S32.9,97,40.4,97h24.4v317.2c0,39.8,32.4,72.2,72.2,72.2h212.4c39.8,0,72.2-32.4,72.2-72.2V97H446c7.5,0,13.5-6,13.5-13.5
	S453.5,70,446,70z M168.6,382.6c0,7.5-6,13.5-13.5,13.5c-7.4,0-13.5-6-13.5-13.5V173.7c0-7.5,6-13.5,13.5-13.5s13.5,6,13.5,13.5
	V382.6z M168.6,53.5c0-14.6,11.9-26.5,26.5-26.5h96.2c14.6,0,26.5,11.9,26.5,26.5V70H168.6V53.5z M256.7,397.5
	c0,7.5-6,13.5-13.5,13.5s-13.5-6.1-13.5-13.6V158.9c0-7.5,6-13.5,13.5-13.5s13.5,6,13.5,13.5V397.5z M344.8,382.6
	c0,7.5-6,13.5-13.5,13.5s-13.5-6-13.5-13.5V173.7c0-7.5,6-13.5,13.5-13.5s13.5,6,13.5,13.5V382.6z"/>
</svg>
