<svg xmlns="http://www.w3.org/2000/svg" width="24" height="24" viewBox="0 0 24 24"><defs></defs><g transform="translate(-4.75 -4.75)"><path class="a" d="M83.937,17.618a.354.354,0,0,0,.354-.354V15.187a.354.354,0,0,0-.709,0v2.076a.354.354,0,0,0,.354.354Z" transform="translate(-62.867 -8.041)"/><path class="a" d="M27.18,12.365H25.167V7.434a.355.355,0,0,0-.354-.354H22.64V5.1a.354.354,0,0,0-.354-.354H11.215a.354.354,0,0,0-.354.354V7.079H8.687a.355.355,0,0,0-.354.354v4.932H6.32a1.571,1.571,0,0,0-1.57,1.57V23.6a1.571,1.571,0,0,0,1.57,1.57h4.54V28.4a.354.354,0,0,0,.354.354H22.286a.354.354,0,0,0,.354-.354V25.167h4.54a1.571,1.571,0,0,0,1.57-1.57V13.935a1.571,1.571,0,0,0-1.57-1.57ZM24.458,7.788v4.577H22.64V7.788ZM11.569,5.459H21.931v6.906H11.569ZM9.042,7.788H10.86v4.577H9.042Zm0,16.67V20.851H10.86v3.607Zm2.527,3.583v-7.19H21.931v7.19ZM22.64,24.458V20.851h1.818v3.607Zm5.4-.861a.862.862,0,0,1-.861.861H25.167V20.5a.355.355,0,0,0-.354-.354H8.687a.355.355,0,0,0-.354.354v3.962H6.32a.862.862,0,0,1-.861-.861V13.935a.862.862,0,0,1,.861-.861H27.18a.862.862,0,0,1,.861.861Z" transform="translate(0)"/><path class="a" d="M19.134,54.346H14.1a.354.354,0,0,0,0,.709h5.029a.354.354,0,1,0,0-.709Z" transform="translate(-7.177 -39.551)"/><path class="a" d="M53.68,89.25H47.6a.354.354,0,0,0,0,.709H53.68a.354.354,0,0,0,0-.709Z" transform="translate(-33.892 -67.386)"/><path class="a" d="M53.68,98.25H47.6a.354.354,0,0,0,0,.709H53.68a.354.354,0,0,0,0-.709Z" transform="translate(-33.892 -74.563)"/><path class="a" d="M53.68,107.25H47.6a.354.354,0,0,0,0,.709H53.68a.354.354,0,0,0,0-.709Z" transform="translate(-33.892 -81.741)"/><path class="a" d="M105.712,51.346a.962.962,0,1,0,.962.962A.962.962,0,0,0,105.712,51.346Zm0,1.215a.253.253,0,1,1,.253-.253A.253.253,0,0,1,105.712,52.561Z" transform="translate(-79.747 -37.159)"/><path class="a" d="M93.837,51.346a.962.962,0,1,0,.962.962A.962.962,0,0,0,93.837,51.346Zm0,1.215a.253.253,0,1,1,.253-.253A.253.253,0,0,1,93.837,52.561Z" transform="translate(-70.277 -37.159)"/><path class="a" d="M81.962,51.346a.962.962,0,1,0,.962.963A.962.962,0,0,0,81.962,51.346Zm0,1.215a.253.253,0,1,1,.253-.252A.253.253,0,0,1,81.962,52.561Z" transform="translate(-60.807 -37.159)"/></g></svg>